<?xml version="1.0" encoding="UTF-8" standalone="no"?>
<!-- Created with Inkscape (http://www.inkscape.org/) -->

<svg
   width="64"
   height="64"
   viewBox="0 0 16.933333 16.933333"
   version="1.1"
   id="svg5"
   sodipodi:docname="windSpeed.svg"
   inkscape:version="1.2.1 (9c6d41e410, 2022-07-14)"
   xmlns:inkscape="http://www.inkscape.org/namespaces/inkscape"
   xmlns:sodipodi="http://sodipodi.sourceforge.net/DTD/sodipodi-0.dtd"
   xmlns="http://www.w3.org/2000/svg"
   xmlns:svg="http://www.w3.org/2000/svg">
  <sodipodi:namedview
     id="namedview7"
     pagecolor="#ffffff"
     bordercolor="#000000"
     borderopacity="0.25"
     inkscape:showpageshadow="2"
     inkscape:pageopacity="0.0"
     inkscape:pagecheckerboard="0"
     inkscape:deskcolor="#d1d1d1"
     inkscape:document-units="mm"
     showgrid="false"
     inkscape:zoom="6.2280773"
     inkscape:cx="29.945036"
     inkscape:cy="44.074597"
     inkscape:window-width="1707"
     inkscape:window-height="994"
     inkscape:window-x="0"
     inkscape:window-y="0"
     inkscape:window-maximized="1"
     inkscape:current-layer="layer1" />
  <defs
     id="defs2" />
  <g
     inkscape:label="Layer 1"
     inkscape:groupmode="layer"
     id="layer1">
    <path
       style="fill:none;fill-opacity:1;stroke:#ffffff;stroke-width:0.667933;stroke-dasharray:none;stroke-opacity:1"
       d="m 2.1233927,12.728223 c 1.6511721,1.580988 3.8950729,0.171847 3.8950729,0.171847 2.5772076,-1.77702 3.5450241,-0.311879 4.2761114,0.274954 1.121515,1.209198 3.925913,0.640123 4.403126,-0.412432"
       id="path1181-5"
       sodipodi:nodetypes="cccc" />
    <path
       style="fill:none;fill-opacity:1;stroke:#ffffff;stroke-width:0.667933;stroke-dasharray:none;stroke-opacity:1"
       d="m 2.1233922,10.486628 c 1.651172,1.580988 3.8950728,0.171846 3.8950728,0.171846 2.5772077,-1.7770191 3.5450241,-0.311878 4.276111,0.274954 1.121516,1.209199 3.925915,0.640123 4.403128,-0.412431"
       id="path1181-5-9"
       sodipodi:nodetypes="cccc" />
    <path
       style="fill:none;fill-opacity:1;stroke:#ffffff;stroke-width:0.667933;stroke-dasharray:none;stroke-opacity:1"
       d="M 2.1233928,8.245034 C 3.7745648,9.82602 6.0184656,8.4168807 6.0184656,8.4168807 8.5956733,6.6398605 9.5634897,8.1050018 10.294577,8.6918345 11.416092,9.901031 14.22049,9.3319578 14.697703,8.279403"
       id="path1181-5-1"
       sodipodi:nodetypes="cccc" />
    <path
       style="fill:none;fill-opacity:1;stroke:#ffffff;stroke-width:0.667933;stroke-dasharray:none;stroke-opacity:1"
       d="M 2.1233921,6.0034383 C 3.7745642,7.5844266 6.0184649,6.175285 6.0184649,6.175285 8.5956727,4.3982655 9.563489,5.8634061 10.294576,6.4502388 c 1.038362,1.0697509 4.398822,1.002795 4.887965,-1.8565227 0.244513,-1.4293171 -2.356624,-2.5806234 -2.821366,0.084656"
       id="path1181-5-2"
       sodipodi:nodetypes="cccsc" />
  </g>
</svg>
